<svg width="25" height="26" viewBox="0 0 25 26" fill="none" xmlns="http://www.w3.org/2000/svg">
<path fill-rule="evenodd" clip-rule="evenodd" d="M5.73123 18.4521C5.08072 18.4521 4.52793 18.6795 4.07263 19.1343C3.6175 19.5895 3.38977 20.1417 3.38977 20.7916C3.38977 21.4415 3.61733 21.9937 4.07263 22.4489C4.5281 22.9037 5.08089 23.1311 5.73123 23.1311C6.37081 23.1311 6.92081 22.9037 7.38157 22.4489C7.84216 21.9942 8.07246 21.4415 8.07246 20.7916C8.07246 20.1417 7.84222 19.5899 7.38157 19.1343C6.92075 18.6799 6.37081 18.4521 5.73123 18.4521Z" fill="#E50914"/>
<path fill-rule="evenodd" clip-rule="evenodd" d="M5.21096 13.5144C5.21096 12.7997 4.95635 12.1881 4.44684 11.6787C3.93738 11.1697 3.32486 10.9153 2.60948 10.9153C1.89405 10.9153 1.28163 11.1698 0.772123 11.6787C0.262726 12.1877 0.00805664 12.7995 0.00805664 13.5144C0.00805664 14.229 0.262669 14.8405 0.772123 15.3497C1.28163 15.8588 1.89405 16.1133 2.60948 16.1133C3.32486 16.1133 3.93738 15.8588 4.44684 15.3497C4.95635 14.8409 5.21096 14.229 5.21096 13.5144Z" fill="#E50914"/>
<path fill-rule="evenodd" clip-rule="evenodd" d="M20.2991 7.53719C20.6565 7.53719 20.9633 7.40975 21.2177 7.15538C21.4724 6.90079 21.6 6.59476 21.6 6.23748C21.6 5.88002 21.4724 5.57422 21.2177 5.3198C20.9631 5.0652 20.6565 4.93799 20.2991 4.93799C19.9413 4.93799 19.635 5.06543 19.3802 5.3198C19.1257 5.57428 18.9983 5.88002 18.9983 6.23748C18.9983 6.59493 19.1257 6.90079 19.3802 7.15538C19.635 7.40998 19.9413 7.53719 20.2991 7.53719Z" fill="#E50914"/>
<path fill-rule="evenodd" clip-rule="evenodd" d="M5.73143 3.37878C4.94002 3.37878 4.26531 3.65767 3.70705 4.21528C3.14874 4.77288 2.86975 5.44701 2.86975 6.23748C2.86975 7.02823 3.14874 7.70207 3.70705 8.2599C4.26548 8.81768 4.9402 9.09651 5.73143 9.09651C6.52266 9.09651 7.19743 8.81751 7.75557 8.2599C8.31371 7.70207 8.59287 7.02806 8.59287 6.23748C8.59287 5.44701 8.31371 4.77288 7.75557 4.21528C7.19743 3.65767 6.52266 3.37878 5.73143 3.37878Z" fill="#E50914"/>
<path fill-rule="evenodd" clip-rule="evenodd" d="M24.5264 12.4098C24.223 12.1065 23.8545 11.9551 23.4211 11.9551C22.9872 11.9551 22.6187 12.1065 22.3153 12.4098C22.0121 12.713 21.8605 13.0813 21.8605 13.5147C21.8605 13.9476 22.0121 14.3164 22.3153 14.619C22.6189 14.9223 22.9872 15.0738 23.4211 15.0738C23.8545 15.0738 24.2232 14.9223 24.5264 14.619C24.8301 14.3161 24.9815 13.9476 24.9815 13.5147C24.9815 13.0815 24.8303 12.7132 24.5264 12.4098Z" fill="#E50914"/>
<path fill-rule="evenodd" clip-rule="evenodd" d="M20.2992 18.9722C19.8003 18.9722 19.3722 19.1507 19.0144 19.5082C18.657 19.8652 18.478 20.2932 18.478 20.7916C18.478 21.2896 18.657 21.7176 19.0144 22.0751C19.3722 22.4325 19.8004 22.6109 20.2992 22.6109C20.7977 22.6109 21.2259 22.4322 21.5837 22.0751C21.9415 21.7176 22.1202 21.2899 22.1202 20.7916C22.1202 20.2932 21.9415 19.8657 21.5837 19.5082C21.2259 19.1506 20.7977 18.9722 20.2992 18.9722Z" fill="#E50914"/>
<path fill-rule="evenodd" clip-rule="evenodd" d="M13.0152 21.8307C12.4407 21.8307 11.9502 22.0341 11.5435 22.4403C11.1371 22.8465 10.9338 23.3362 10.9338 23.9102C10.9338 24.4842 11.1369 24.9741 11.5435 25.3802C11.9502 25.7863 12.4405 25.9896 13.0152 25.9896C13.5898 25.9896 14.0801 25.7863 14.4866 25.3802C14.8932 24.9741 15.0964 24.4842 15.0964 23.9102C15.0964 23.3362 14.8932 22.8465 14.4866 22.4403C14.0801 22.0341 13.5898 21.8307 13.0152 21.8307Z" fill="#E50914"/>
<path fill-rule="evenodd" clip-rule="evenodd" d="M13.0152 0C12.1482 0 11.4107 0.303068 10.8037 0.909488C10.1968 1.51596 9.89331 2.2525 9.89331 3.11875C9.89331 3.98505 10.1967 4.72125 10.8037 5.32778C11.4107 5.93409 12.148 6.23733 13.0152 6.23733C13.8826 6.23733 14.6195 5.93426 15.2263 5.32778C15.8332 4.72153 16.1366 3.98505 16.1366 3.11875C16.1366 2.25256 15.8332 1.51619 15.2263 0.909488C14.6195 0.303239 13.8826 0 13.0152 0Z" fill="#E50914"/>
</svg>
